<svg width="311" height="196" viewBox="0 0 311 196" fill="none" xmlns="http://www.w3.org/2000/svg">
<path d="M3.12308 192.857L63.2753 2.83714L304.854 110.529L3.12308 192.857Z" fill="#F1E4DA" fill-opacity="0.6" stroke="#0E1163" stroke-width="4.14415"/>
<path d="M0 17.9643C0 17.9643 64.4148 77.7894 64.6819 17.9643C64.9757 -47.8304 137.575 94.0183 140.268 17.9643C141.153 -7.053 201.032 17.9643 201.032 17.9643" transform="matrix(0.80937 0.586862 -0.872179 0.489659 125.926 14)" stroke="#0E1163" stroke-width="3.79447"/>
<path d="M19.7945 1.3415C20.5354 0.600612 20.5354 -0.600612 19.7945 -1.3415L7.72098 -13.415C6.98009 -14.1559 5.77886 -14.1559 5.03797 -13.415C4.29708 -12.6742 4.29708 -11.4729 5.03797 -10.732L15.77 0L5.03797 10.732C4.29708 11.4729 4.29708 12.6742 5.03797 13.415C5.77886 14.1559 6.98009 14.1559 7.72098 13.415L19.7945 1.3415ZM0 1.89717H18.453V-1.89717H0V1.89717Z" transform="matrix(0.516533 0.855988 -0.971214 0.238734 272.895 140.677)" fill="#0E1163"/>
</svg>
