<svg width="171" height="251" viewBox="0 0 171 251" fill="none" xmlns="http://www.w3.org/2000/svg">
<path d="M53.8694 72.6398L4.57512 2.8838L197.864 35.9089L53.8694 72.6398Z" transform="translate(59.9219 10.2095) scale(1 -1) rotate(-82.8558)" fill="#F1E4DA" fill-opacity="0.6" stroke="#0E1163" stroke-width="4.14415"/>
<path d="M0 17.9643C0 17.9643 64.4148 77.7894 64.6819 17.9643C64.9757 -47.8304 137.575 94.0183 140.268 17.9643C141.153 -7.053 201.032 17.9643 201.032 17.9643" transform="matrix(-0.481646 0.876073 -0.594328 -0.80451 150.352 71.624)" stroke="#0E1163" stroke-width="3.79447"/>
<path d="M19.7945 1.3415C20.5354 0.600612 20.5354 -0.600612 19.7945 -1.3415L7.72098 -13.415C6.98009 -14.1559 5.77886 -14.1559 5.03797 -13.415C4.29708 -12.6742 4.29708 -11.4729 5.03797 -10.732L15.77 0L5.03797 10.732C4.29708 11.4729 4.29708 12.6742 5.03797 13.415C5.77886 14.1559 6.98009 14.1559 7.72098 13.415L19.7945 1.3415ZM0 1.89717H18.453V-1.89717H0V1.89717Z" transform="matrix(-0.785103 0.618979 -0.357668 -0.933983 42.9375 233.208)" fill="#0E1163"/>
</svg>
