<svg width="244" height="816" viewBox="0 0 244 816" fill="none" xmlns="http://www.w3.org/2000/svg">
<g opacity="0.8">
<path d="M0 1.83183C2.30431 4.20815 6.24787 11.597 9 13.0541C10.9594 14.0914 11.6476 14.9702 14 14.8318C16.6785 14.6743 13.1188 10.8416 13 9.83183C12.7841 7.99634 8.25849 4.53477 6.77778 3.05405C4.10683 0.383104 3.72266 -1.61348 2 1.83183" transform="translate(14.1211 8.16821)" stroke="#FFCFD0" stroke-width="5" stroke-linecap="round" stroke-linejoin="round"/>
<path d="M0.115272 2C2.78721 5.42008 6.03967 8.0518 8.89305 11.2222C9.96175 12.4097 11.0361 13.7656 12.3375 14.7778C13.5703 15.7366 12.6211 10.5356 12.3375 10C10.7748 7.04831 8.66471 4.26617 6.11527 2C4.3328 0.415577 2.41352 0 0.115272 0C-0.426121 0 1.11527 1.69666 1.11527 3" transform="translate(35.0039 32)" stroke="#FFCFD0" stroke-width="5" stroke-linecap="round" stroke-linejoin="round"/>
<path d="M2.11968 6.00172C3.65675 9.61838 7.44748 17.4521 12.1197 18.0017C13.2493 18.1346 17.0033 20.6882 17.1197 17.7795C17.2011 15.7428 18.0471 10.9133 16.1197 9.7795C13.4337 8.19949 11.9604 5.19988 9.11968 3.7795C6.66738 2.55335 4.58414 1.31926 2.11968 0.223944C-0.7342 -1.04445 0.119675 3.4187 0.119675 5.00172C0.119675 8.35088 1.04369 7.84974 2.11968 10.0017" transform="translate(58.1211 57)" stroke="#FFCFD0" stroke-width="5" stroke-linecap="round" stroke-linejoin="round"/>
<path d="M12.2075 4.84167C10.6736 4.18976 0.207535 -3.87925 0.207535 2.34167C0.207535 4.13862 -0.383745 7.21466 0.429757 8.84167C1.63106 11.2443 4.64157 12.6917 5.98531 14.8417C7.25255 16.8692 16.9111 18.0543 16.152 15.3972C15.1568 11.914 12.5169 9.46033 11.2075 6.84167" transform="translate(83.0352 83.16)" stroke="#FFCFD0" stroke-width="5" stroke-linecap="round" stroke-linejoin="round"/>
<path d="M0 1.83183C2.30431 4.20815 6.24787 11.597 9 13.0541C10.9594 14.0914 11.6476 14.9702 14 14.8318C16.6785 14.6743 13.1188 10.8416 13 9.83183C12.7841 7.99634 8.25849 4.53477 6.77778 3.05405C4.10683 0.383104 3.72266 -1.61348 2 1.83183" transform="translate(105.242 109.17)" stroke="#FFCFD0" stroke-width="5" stroke-linecap="round" stroke-linejoin="round"/>
<path d="M0.115272 2C2.78721 5.42008 6.03967 8.0518 8.89305 11.2222C9.96175 12.4097 11.0361 13.7656 12.3375 14.7778C13.5703 15.7366 12.6211 10.5356 12.3375 10C10.7748 7.04831 8.66471 4.26617 6.11527 2C4.3328 0.415577 2.41352 0 0.115272 0C-0.426121 0 1.11527 1.69666 1.11527 3" transform="translate(126.125 133.002)" stroke="#FFCFD0" stroke-width="5" stroke-linecap="round" stroke-linejoin="round"/>
<path d="M0 1.83183C2.30431 4.20815 6.24787 11.597 9 13.0541C10.9594 14.0914 11.6476 14.9702 14 14.8318C16.6785 14.6743 13.1188 10.8416 13 9.83183C12.7841 7.99634 8.25849 4.53477 6.77778 3.05405C4.10683 0.383104 3.72266 -1.61348 2 1.83183" transform="translate(44.2422 3.16992)" stroke="#FFCFD0" stroke-width="5" stroke-linecap="round" stroke-linejoin="round"/>
<path d="M0.115272 2C2.78721 5.42008 6.03967 8.0518 8.89305 11.2222C9.96175 12.4097 11.0361 13.7656 12.3375 14.7778C13.5703 15.7366 12.6211 10.5356 12.3375 10C10.7748 7.04831 8.66471 4.26617 6.11527 2C4.3328 0.415577 2.41352 0 0.115272 0C-0.426121 0 1.11527 1.69666 1.11527 3" transform="translate(65.125 27.0017)" stroke="#FFCFD0" stroke-width="5" stroke-linecap="round" stroke-linejoin="round"/>
<path d="M2.11968 6.00172C3.65675 9.61838 7.44748 17.4521 12.1197 18.0017C13.2493 18.1346 17.0033 20.6882 17.1197 17.7795C17.2011 15.7428 18.0471 10.9133 16.1197 9.7795C13.4337 8.19949 11.9604 5.19988 9.11968 3.7795C6.66738 2.55335 4.58414 1.31926 2.11968 0.223944C-0.7342 -1.04445 0.119675 3.4187 0.119675 5.00172C0.119675 8.35088 1.04369 7.84974 2.11968 10.0017" transform="translate(88.2422 52.0017)" stroke="#FFCFD0" stroke-width="5" stroke-linecap="round" stroke-linejoin="round"/>
<path d="M12.2075 4.84167C10.6736 4.18976 0.207535 -3.87925 0.207535 2.34167C0.207535 4.13862 -0.383745 7.21466 0.429757 8.84167C1.63106 11.2443 4.64157 12.6917 5.98531 14.8417C7.25255 16.8692 16.9111 18.0543 16.152 15.3972C15.1568 11.914 12.5169 9.46033 11.2075 6.84167" transform="translate(113.156 78.1617)" stroke="#FFCFD0" stroke-width="5" stroke-linecap="round" stroke-linejoin="round"/>
<path d="M0 1.83183C2.30431 4.20815 6.24787 11.597 9 13.0541C10.9594 14.0914 11.6476 14.9702 14 14.8318C16.6785 14.6743 13.1188 10.8416 13 9.83183C12.7841 7.99634 8.25849 4.53477 6.77778 3.05405C4.10683 0.383104 3.72266 -1.61348 2 1.83183" transform="translate(135.363 104.172)" stroke="#FFCFD0" stroke-width="5" stroke-linecap="round" stroke-linejoin="round"/>
<path d="M0.115272 2C2.78721 5.42008 6.03967 8.0518 8.89305 11.2222C9.96175 12.4097 11.0361 13.7656 12.3375 14.7778C13.5703 15.7366 12.6211 10.5356 12.3375 10C10.7748 7.04831 8.66471 4.26617 6.11527 2C4.3328 0.415577 2.41352 0 0.115272 0C-0.426121 0 1.11527 1.69666 1.11527 3" transform="translate(156.246 128.003)" stroke="#FFCFD0" stroke-width="5" stroke-linecap="round" stroke-linejoin="round"/>
<path d="M2.11968 6.00172C3.65675 9.61838 7.44748 17.4521 12.1197 18.0017C13.2493 18.1346 17.0033 20.6882 17.1197 17.7795C17.2011 15.7428 18.0471 10.9133 16.1197 9.7795C13.4337 8.19949 11.9604 5.19988 9.11968 3.7795C6.66738 2.55335 4.58414 1.31926 2.11968 0.223944C-0.7342 -1.04445 0.119675 3.4187 0.119675 5.00172C0.119675 8.35088 1.04369 7.84974 2.11968 10.0017" transform="translate(8.00391 372.344)" stroke="#FFCFD0" stroke-width="5" stroke-linecap="round" stroke-linejoin="round"/>
<path d="M12.2075 4.84167C10.6736 4.18976 0.207535 -3.87925 0.207535 2.34167C0.207535 4.13862 -0.383745 7.21466 0.429757 8.84167C1.63106 11.2443 4.64157 12.6917 5.98531 14.8417C7.25255 16.8692 16.9111 18.0543 16.152 15.3972C15.1568 11.914 12.5169 9.46033 11.2075 6.84167" transform="translate(32.918 398.505)" stroke="#FFCFD0" stroke-width="5" stroke-linecap="round" stroke-linejoin="round"/>
<path d="M0 1.83183C2.30431 4.20815 6.24787 11.597 9 13.0541C10.9594 14.0914 11.6476 14.9702 14 14.8318C16.6785 14.6743 13.1188 10.8416 13 9.83183C12.7841 7.99634 8.25849 4.53477 6.77778 3.05405C4.10683 0.383104 3.72266 -1.61348 2 1.83183" transform="translate(55.125 424.514)" stroke="#FFCFD0" stroke-width="5" stroke-linecap="round" stroke-linejoin="round"/>
<path d="M0.115272 2C2.78721 5.42008 6.03967 8.0518 8.89305 11.2222C9.96175 12.4097 11.0361 13.7656 12.3375 14.7778C13.5703 15.7366 12.6211 10.5356 12.3375 10C10.7748 7.04831 8.66471 4.26617 6.11527 2C4.3328 0.415577 2.41352 0 0.115272 0C-0.426121 0 1.11527 1.69666 1.11527 3" transform="translate(76.0078 448.346)" stroke="#FFCFD0" stroke-width="5" stroke-linecap="round" stroke-linejoin="round"/>
<path d="M2.11968 6.00172C3.65675 9.61838 7.44748 17.4521 12.1197 18.0017C13.2493 18.1346 17.0033 20.6882 17.1197 17.7795C17.2011 15.7428 18.0471 10.9133 16.1197 9.7795C13.4337 8.19949 11.9604 5.19988 9.11968 3.7795C6.66738 2.55335 4.58414 1.31926 2.11968 0.223944C-0.7342 -1.04445 0.119675 3.4187 0.119675 5.00172C0.119675 8.35088 1.04369 7.84974 2.11968 10.0017" transform="translate(99.125 473.346)" stroke="#FFCFD0" stroke-width="5" stroke-linecap="round" stroke-linejoin="round"/>
<path d="M12.2075 4.84167C10.6736 4.18976 0.207535 -3.87925 0.207535 2.34167C0.207535 4.13862 -0.383745 7.21466 0.429757 8.84167C1.63106 11.2443 4.64157 12.6917 5.98531 14.8417C7.25255 16.8692 16.9111 18.0543 16.152 15.3972C15.1568 11.914 12.5169 9.46033 11.2075 6.84167" transform="translate(124.039 499.506)" stroke="#FFCFD0" stroke-width="5" stroke-linecap="round" stroke-linejoin="round"/>
<path d="M0 1.83183C2.30431 4.20815 6.24787 11.597 9 13.0541C10.9594 14.0914 11.6476 14.9702 14 14.8318C16.6785 14.6743 13.1188 10.8416 13 9.83183C12.7841 7.99634 8.25849 4.53477 6.77778 3.05405C4.10683 0.383104 3.72266 -1.61348 2 1.83183" transform="translate(146.246 525.516)" stroke="#FFCFD0" stroke-width="5" stroke-linecap="round" stroke-linejoin="round"/>
<path d="M0.115272 2C2.78721 5.42008 6.03967 8.0518 8.89305 11.2222C9.96175 12.4097 11.0361 13.7656 12.3375 14.7778C13.5703 15.7366 12.6211 10.5356 12.3375 10C10.7748 7.04831 8.66471 4.26617 6.11527 2C4.3328 0.415577 2.41352 0 0.115272 0C-0.426121 0 1.11527 1.69666 1.11527 3" transform="translate(167.129 549.348)" stroke="#FFCFD0" stroke-width="5" stroke-linecap="round" stroke-linejoin="round"/>
<path d="M2.11968 6.00172C3.65675 9.61838 7.44748 17.4521 12.1197 18.0017C13.2493 18.1346 17.0033 20.6882 17.1197 17.7795C17.2011 15.7428 18.0471 10.9133 16.1197 9.7795C13.4337 8.19949 11.9604 5.19988 9.11968 3.7795C6.66738 2.55335 4.58414 1.31926 2.11968 0.223944C-0.7342 -1.04445 0.119675 3.4187 0.119675 5.00172C0.119675 8.35088 1.04369 7.84974 2.11968 10.0017" transform="translate(38.125 367.346)" stroke="#FFCFD0" stroke-width="5" stroke-linecap="round" stroke-linejoin="round"/>
<path d="M12.2075 4.84167C10.6736 4.18976 0.207535 -3.87925 0.207535 2.34167C0.207535 4.13862 -0.383745 7.21466 0.429757 8.84167C1.63106 11.2443 4.64157 12.6917 5.98531 14.8417C7.25255 16.8692 16.9111 18.0543 16.152 15.3972C15.1568 11.914 12.5169 9.46033 11.2075 6.84167" transform="translate(63.0391 393.506)" stroke="#FFCFD0" stroke-width="5" stroke-linecap="round" stroke-linejoin="round"/>
<path d="M0 1.83183C2.30431 4.20815 6.24787 11.597 9 13.0541C10.9594 14.0914 11.6476 14.9702 14 14.8318C16.6785 14.6743 13.1188 10.8416 13 9.83183C12.7841 7.99634 8.25849 4.53477 6.77778 3.05405C4.10683 0.383104 3.72266 -1.61348 2 1.83183" transform="translate(85.2461 419.516)" stroke="#FFCFD0" stroke-width="5" stroke-linecap="round" stroke-linejoin="round"/>
<path d="M0.115272 2C2.78721 5.42008 6.03967 8.0518 8.89305 11.2222C9.96175 12.4097 11.0361 13.7656 12.3375 14.7778C13.5703 15.7366 12.6211 10.5356 12.3375 10C10.7748 7.04831 8.66471 4.26617 6.11527 2C4.3328 0.415577 2.41352 0 0.115272 0C-0.426121 0 1.11527 1.69666 1.11527 3" transform="translate(106.129 443.348)" stroke="#FFCFD0" stroke-width="5" stroke-linecap="round" stroke-linejoin="round"/>
<path d="M2.11968 6.00172C3.65675 9.61838 7.44748 17.4521 12.1197 18.0017C13.2493 18.1346 17.0033 20.6882 17.1197 17.7795C17.2011 15.7428 18.0471 10.9133 16.1197 9.7795C13.4337 8.19949 11.9604 5.19988 9.11968 3.7795C6.66738 2.55335 4.58414 1.31926 2.11968 0.223944C-0.7342 -1.04445 0.119675 3.4187 0.119675 5.00172C0.119675 8.35088 1.04369 7.84974 2.11968 10.0017" transform="translate(129.246 468.348)" stroke="#FFCFD0" stroke-width="5" stroke-linecap="round" stroke-linejoin="round"/>
<path d="M12.2075 4.84167C10.6736 4.18976 0.207535 -3.87925 0.207535 2.34167C0.207535 4.13862 -0.383745 7.21466 0.429757 8.84167C1.63106 11.2443 4.64157 12.6917 5.98531 14.8417C7.25255 16.8692 16.9111 18.0543 16.152 15.3972C15.1568 11.914 12.5169 9.46033 11.2075 6.84167" transform="translate(154.16 494.508)" stroke="#FFCFD0" stroke-width="5" stroke-linecap="round" stroke-linejoin="round"/>
<path d="M0 1.83183C2.30431 4.20815 6.24787 11.597 9 13.0541C10.9594 14.0914 11.6476 14.9702 14 14.8318C16.6785 14.6743 13.1188 10.8416 13 9.83183C12.7841 7.99634 8.25849 4.53477 6.77778 3.05405C4.10683 0.383104 3.72266 -1.61348 2 1.83183" transform="translate(176.367 520.518)" stroke="#FFCFD0" stroke-width="5" stroke-linecap="round" stroke-linejoin="round"/>
<path d="M0.115272 2C2.78721 5.42008 6.03967 8.0518 8.89305 11.2222C9.96175 12.4097 11.0361 13.7656 12.3375 14.7778C13.5703 15.7366 12.6211 10.5356 12.3375 10C10.7748 7.04831 8.66471 4.26617 6.11527 2C4.3328 0.415577 2.41352 0 0.115272 0C-0.426121 0 1.11527 1.69666 1.11527 3" transform="translate(197.25 544.35)" stroke="#FFCFD0" stroke-width="5" stroke-linecap="round" stroke-linejoin="round"/>
<path d="M12.2075 4.84167C10.6736 4.18976 0.207535 -3.87925 0.207535 2.34167C0.207535 4.13862 -0.383745 7.21466 0.429757 8.84167C1.63106 11.2443 4.64157 12.6917 5.98531 14.8417C7.25255 16.8692 16.9111 18.0543 16.152 15.3972C15.1568 11.914 12.5169 9.46033 11.2075 6.84167" transform="translate(192.898 158.346) rotate(84.0191)" stroke="#FFCFD0" stroke-width="5" stroke-linecap="round" stroke-linejoin="round"/>
<path d="M12.2075 4.84167C10.6736 4.18976 0.207535 -3.87925 0.207535 2.34167C0.207535 4.13862 -0.383745 7.21466 0.429757 8.84167C1.63106 11.2443 4.64157 12.6917 5.98531 14.8417C7.25255 16.8692 16.9111 18.0543 16.152 15.3972C15.1568 11.914 12.5169 9.46033 11.2075 6.84167" transform="translate(33.8477 335.346) rotate(84.0191)" stroke="#FFCFD0" stroke-width="5" stroke-linecap="round" stroke-linejoin="round"/>
<path d="M0 1.83183C2.30431 4.20815 6.24787 11.597 9 13.0541C10.9594 14.0914 11.6476 14.9702 14 14.8318C16.6785 14.6743 13.1188 10.8416 13 9.83183C12.7841 7.99634 8.25849 4.53477 6.77778 3.05405C4.10683 0.383104 3.72266 -1.61348 2 1.83183" transform="translate(169.344 183.142) rotate(84.0191)" stroke="#FFCFD0" stroke-width="5" stroke-linecap="round" stroke-linejoin="round"/>
<path d="M0.115272 2C2.78721 5.42008 6.03967 8.0518 8.89305 11.2222C9.96175 12.4097 11.0361 13.7656 12.3375 14.7778C13.5703 15.7366 12.6211 10.5356 12.3375 10C10.7748 7.04831 8.66471 4.26617 6.11527 2C4.3328 0.415577 2.41352 0 0.115272 0C-0.426121 0 1.11527 1.69666 1.11527 3" transform="translate(147.816 206.395) rotate(84.0191)" stroke="#FFCFD0" stroke-width="5" stroke-linecap="round" stroke-linejoin="round"/>
<path d="M2.11968 6.00172C3.65675 9.61838 7.44748 17.4521 12.1197 18.0017C13.2493 18.1346 17.0033 20.6882 17.1197 17.7795C17.2011 15.7428 18.0471 10.9133 16.1197 9.7795C13.4337 8.19949 11.9604 5.19988 9.11968 3.7795C6.66738 2.55335 4.58414 1.31926 2.11968 0.223944C-0.7342 -1.04445 0.119675 3.4187 0.119675 5.00172C0.119675 8.35088 1.04369 7.84974 2.11968 10.0017" transform="translate(125.363 231.991) rotate(84.0191)" stroke="#FFCFD0" stroke-width="5" stroke-linecap="round" stroke-linejoin="round"/>
<path d="M12.2075 4.84167C10.6736 4.18976 0.207535 -3.87925 0.207535 2.34167C0.207535 4.13862 -0.383745 7.21466 0.429757 8.84167C1.63106 11.2443 4.64157 12.6917 5.98531 14.8417C7.25255 16.8692 16.9111 18.0543 16.152 15.3972C15.1568 11.914 12.5169 9.46033 11.2075 6.84167" transform="translate(101.941 259.495) rotate(84.0191)" stroke="#FFCFD0" stroke-width="5" stroke-linecap="round" stroke-linejoin="round"/>
<path d="M0 1.83183C2.30431 4.20815 6.24787 11.597 9 13.0541C10.9594 14.0914 11.6476 14.9702 14 14.8318C16.6785 14.6743 13.1188 10.8416 13 9.83183C12.7841 7.99634 8.25849 4.53477 6.77778 3.05405C4.10683 0.383104 3.72266 -1.61348 2 1.83183" transform="translate(78.3867 284.292) rotate(84.0191)" stroke="#FFCFD0" stroke-width="5" stroke-linecap="round" stroke-linejoin="round"/>
<path d="M0.115272 2C2.78721 5.42008 6.03967 8.0518 8.89305 11.2222C9.96175 12.4097 11.0361 13.7656 12.3375 14.7778C13.5703 15.7366 12.6211 10.5356 12.3375 10C10.7748 7.04831 8.66471 4.26617 6.11527 2C4.3328 0.415577 2.41352 0 0.115272 0C-0.426121 0 1.11527 1.69666 1.11527 3" transform="translate(56.8594 307.544) rotate(84.0191)" stroke="#FFCFD0" stroke-width="5" stroke-linecap="round" stroke-linejoin="round"/>
<path d="M12.2075 4.84167C10.6736 4.18976 0.207535 -3.87925 0.207535 2.34167C0.207535 4.13862 -0.383745 7.21466 0.429757 8.84167C1.63106 11.2443 4.64157 12.6917 5.98531 14.8417C7.25255 16.8692 16.9111 18.0543 16.152 15.3972C15.1568 11.914 12.5169 9.46033 11.2075 6.84167" transform="translate(201.008 187.783) rotate(84.0191)" stroke="#FFCFD0" stroke-width="5" stroke-linecap="round" stroke-linejoin="round"/>
<path d="M0 1.83183C2.30431 4.20815 6.24787 11.597 9 13.0541C10.9594 14.0914 11.6476 14.9702 14 14.8318C16.6785 14.6743 13.1188 10.8416 13 9.83183C12.7841 7.99634 8.25849 4.53477 6.77778 3.05405C4.10683 0.383104 3.72266 -1.61348 2 1.83183" transform="translate(177.453 212.579) rotate(84.0191)" stroke="#FFCFD0" stroke-width="5" stroke-linecap="round" stroke-linejoin="round"/>
<path d="M0.115272 2C2.78721 5.42008 6.03967 8.0518 8.89305 11.2222C9.96175 12.4097 11.0361 13.7656 12.3375 14.7778C13.5703 15.7366 12.6211 10.5356 12.3375 10C10.7748 7.04831 8.66471 4.26617 6.11527 2C4.3328 0.415577 2.41352 0 0.115272 0C-0.426121 0 1.11527 1.69666 1.11527 3" transform="translate(155.926 235.831) rotate(84.0191)" stroke="#FFCFD0" stroke-width="5" stroke-linecap="round" stroke-linejoin="round"/>
<path d="M2.11968 6.00172C3.65675 9.61838 7.44748 17.4521 12.1197 18.0017C13.2493 18.1346 17.0033 20.6882 17.1197 17.7795C17.2011 15.7428 18.0471 10.9133 16.1197 9.7795C13.4337 8.19949 11.9604 5.19988 9.11968 3.7795C6.66738 2.55335 4.58414 1.31926 2.11968 0.223944C-0.7342 -1.04445 0.119675 3.4187 0.119675 5.00172C0.119675 8.35088 1.04369 7.84974 2.11968 10.0017" transform="translate(133.473 261.427) rotate(84.0191)" stroke="#FFCFD0" stroke-width="5" stroke-linecap="round" stroke-linejoin="round"/>
<path d="M12.2075 4.84167C10.6736 4.18976 0.207535 -3.87925 0.207535 2.34167C0.207535 4.13862 -0.383745 7.21466 0.429757 8.84167C1.63106 11.2443 4.64157 12.6917 5.98531 14.8417C7.25255 16.8692 16.9111 18.0543 16.152 15.3972C15.1568 11.914 12.5169 9.46033 11.2075 6.84167" transform="translate(110.051 288.932) rotate(84.0191)" stroke="#FFCFD0" stroke-width="5" stroke-linecap="round" stroke-linejoin="round"/>
<path d="M0 1.83183C2.30431 4.20815 6.24787 11.597 9 13.0541C10.9594 14.0914 11.6476 14.9702 14 14.8318C16.6785 14.6743 13.1188 10.8416 13 9.83183C12.7841 7.99634 8.25849 4.53477 6.77778 3.05405C4.10683 0.383104 3.72266 -1.61348 2 1.83183" transform="translate(86.4961 313.728) rotate(84.0191)" stroke="#FFCFD0" stroke-width="5" stroke-linecap="round" stroke-linejoin="round"/>
<path d="M0.115272 2C2.78721 5.42008 6.03967 8.0518 8.89305 11.2222C9.96175 12.4097 11.0361 13.7656 12.3375 14.7778C13.5703 15.7366 12.6211 10.5356 12.3375 10C10.7748 7.04831 8.66471 4.26617 6.11527 2C4.3328 0.415577 2.41352 0 0.115272 0C-0.426121 0 1.11527 1.69666 1.11527 3" transform="translate(64.9688 336.98) rotate(84.0191)" stroke="#FFCFD0" stroke-width="5" stroke-linecap="round" stroke-linejoin="round"/>
<path d="M0 1.83183C2.30431 4.20815 6.24787 11.597 9 13.0541C10.9594 14.0914 11.6476 14.9702 14 14.8318C16.6785 14.6743 13.1188 10.8416 13 9.83183C12.7841 7.99634 8.25849 4.53477 6.77778 3.05405C4.10683 0.383104 3.72266 -1.61348 2 1.83183" transform="translate(35.7656 767) rotate(84.0191)" stroke="#FFCFD0" stroke-width="5" stroke-linecap="round" stroke-linejoin="round"/>
<path d="M0 1.83183C2.30431 4.20815 6.24787 11.597 9 13.0541C10.9594 14.0914 11.6476 14.9702 14 14.8318C16.6785 14.6743 13.1188 10.8416 13 9.83183C12.7841 7.99634 8.25849 4.53477 6.77778 3.05405C4.10683 0.383104 3.72266 -1.61348 2 1.83183" transform="translate(43.875 796.437) rotate(84.0191)" stroke="#FFCFD0" stroke-width="5" stroke-linecap="round" stroke-linejoin="round"/>
<path d="M12.2075 4.84167C10.6736 4.18976 0.207535 -3.87925 0.207535 2.34167C0.207535 4.13862 -0.383745 7.21466 0.429757 8.84167C1.63106 11.2443 4.64157 12.6917 5.98531 14.8417C7.25255 16.8692 16.9111 18.0543 16.152 15.3972C15.1568 11.914 12.5169 9.46033 11.2075 6.84167" transform="translate(225.512 564) rotate(84.0191)" stroke="#FFCFD0" stroke-width="5" stroke-linecap="round" stroke-linejoin="round"/>
<path d="M12.2075 4.84167C10.6736 4.18976 0.207535 -3.87925 0.207535 2.34167C0.207535 4.13862 -0.383745 7.21466 0.429757 8.84167C1.63106 11.2443 4.64157 12.6917 5.98531 14.8417C7.25255 16.8692 16.9111 18.0543 16.152 15.3972C15.1568 11.914 12.5169 9.46033 11.2075 6.84167" transform="translate(66.4609 741) rotate(84.0191)" stroke="#FFCFD0" stroke-width="5" stroke-linecap="round" stroke-linejoin="round"/>
<path d="M0 1.83183C2.30431 4.20815 6.24787 11.597 9 13.0541C10.9594 14.0914 11.6476 14.9702 14 14.8318C16.6785 14.6743 13.1188 10.8416 13 9.83183C12.7841 7.99634 8.25849 4.53477 6.77778 3.05405C4.10683 0.383104 3.72266 -1.61348 2 1.83183" transform="translate(201.957 588.796) rotate(84.0191)" stroke="#FFCFD0" stroke-width="5" stroke-linecap="round" stroke-linejoin="round"/>
<path d="M0.115272 2C2.78721 5.42008 6.03967 8.0518 8.89305 11.2222C9.96175 12.4097 11.0361 13.7656 12.3375 14.7778C13.5703 15.7366 12.6211 10.5356 12.3375 10C10.7748 7.04831 8.66471 4.26617 6.11527 2C4.3328 0.415577 2.41352 0 0.115272 0C-0.426121 0 1.11527 1.69666 1.11527 3" transform="translate(180.43 612.049) rotate(84.0191)" stroke="#FFCFD0" stroke-width="5" stroke-linecap="round" stroke-linejoin="round"/>
<path d="M2.11968 6.00172C3.65675 9.61838 7.44748 17.4521 12.1197 18.0017C13.2493 18.1346 17.0033 20.6882 17.1197 17.7795C17.2011 15.7428 18.0471 10.9133 16.1197 9.7795C13.4337 8.19949 11.9604 5.19988 9.11968 3.7795C6.66738 2.55335 4.58414 1.31926 2.11968 0.223944C-0.7342 -1.04445 0.119675 3.4187 0.119675 5.00172C0.119675 8.35088 1.04369 7.84974 2.11968 10.0017" transform="translate(157.977 637.645) rotate(84.0191)" stroke="#FFCFD0" stroke-width="5" stroke-linecap="round" stroke-linejoin="round"/>
<path d="M12.2075 4.84167C10.6736 4.18976 0.207535 -3.87925 0.207535 2.34167C0.207535 4.13862 -0.383745 7.21466 0.429757 8.84167C1.63106 11.2443 4.64157 12.6917 5.98531 14.8417C7.25255 16.8692 16.9111 18.0543 16.152 15.3972C15.1568 11.914 12.5169 9.46033 11.2075 6.84167" transform="translate(134.555 665.149) rotate(84.0191)" stroke="#FFCFD0" stroke-width="5" stroke-linecap="round" stroke-linejoin="round"/>
<path d="M0 1.83183C2.30431 4.20815 6.24787 11.597 9 13.0541C10.9594 14.0914 11.6476 14.9702 14 14.8318C16.6785 14.6743 13.1188 10.8416 13 9.83183C12.7841 7.99634 8.25849 4.53477 6.77778 3.05405C4.10683 0.383104 3.72266 -1.61348 2 1.83183" transform="translate(111 689.945) rotate(84.0191)" stroke="#FFCFD0" stroke-width="5" stroke-linecap="round" stroke-linejoin="round"/>
<path d="M0 1.83183C2.30431 4.20815 6.24787 11.597 9 13.0541C10.9594 14.0914 11.6476 14.9702 14 14.8318C16.6785 14.6743 13.1188 10.8416 13 9.83183C12.7841 7.99634 8.25849 4.53477 6.77778 3.05405C4.10683 0.383104 3.72266 -1.61348 2 1.83183" transform="translate(70.7656 773) rotate(84.0191)" stroke="#FFCFD0" stroke-width="5" stroke-linecap="round" stroke-linejoin="round"/>
<path d="M0.115272 2C2.78721 5.42008 6.03967 8.0518 8.89305 11.2222C9.96175 12.4097 11.0361 13.7656 12.3375 14.7778C13.5703 15.7366 12.6211 10.5356 12.3375 10C10.7748 7.04831 8.66471 4.26617 6.11527 2C4.3328 0.415577 2.41352 0 0.115272 0C-0.426121 0 1.11527 1.69666 1.11527 3" transform="translate(89.4727 713.198) rotate(84.0191)" stroke="#FFCFD0" stroke-width="5" stroke-linecap="round" stroke-linejoin="round"/>
<path d="M12.2075 4.84167C10.6736 4.18976 0.207535 -3.87925 0.207535 2.34167C0.207535 4.13862 -0.383745 7.21466 0.429757 8.84167C1.63106 11.2443 4.64157 12.6917 5.98531 14.8417C7.25255 16.8692 16.9111 18.0543 16.152 15.3972C15.1568 11.914 12.5169 9.46033 11.2075 6.84167" transform="translate(233.621 593.436) rotate(84.0191)" stroke="#FFCFD0" stroke-width="5" stroke-linecap="round" stroke-linejoin="round"/>
<path d="M0 1.83183C2.30431 4.20815 6.24787 11.597 9 13.0541C10.9594 14.0914 11.6476 14.9702 14 14.8318C16.6785 14.6743 13.1188 10.8416 13 9.83183C12.7841 7.99634 8.25849 4.53477 6.77778 3.05405C4.10683 0.383104 3.72266 -1.61348 2 1.83183" transform="translate(210.066 618.233) rotate(84.0191)" stroke="#FFCFD0" stroke-width="5" stroke-linecap="round" stroke-linejoin="round"/>
<path d="M0.115272 2C2.78721 5.42008 6.03967 8.0518 8.89305 11.2222C9.96175 12.4097 11.0361 13.7656 12.3375 14.7778C13.5703 15.7366 12.6211 10.5356 12.3375 10C10.7748 7.04831 8.66471 4.26617 6.11527 2C4.3328 0.415577 2.41352 0 0.115272 0C-0.426121 0 1.11527 1.69666 1.11527 3" transform="translate(188.539 641.485) rotate(84.0191)" stroke="#FFCFD0" stroke-width="5" stroke-linecap="round" stroke-linejoin="round"/>
<path d="M2.11968 6.00172C3.65675 9.61838 7.44748 17.4521 12.1197 18.0017C13.2493 18.1346 17.0033 20.6882 17.1197 17.7795C17.2011 15.7428 18.0471 10.9133 16.1197 9.7795C13.4337 8.19949 11.9604 5.19988 9.11968 3.7795C6.66738 2.55335 4.58414 1.31926 2.11968 0.223944C-0.7342 -1.04445 0.119675 3.4187 0.119675 5.00172C0.119675 8.35088 1.04369 7.84974 2.11968 10.0017" transform="translate(166.086 667.081) rotate(84.0191)" stroke="#FFCFD0" stroke-width="5" stroke-linecap="round" stroke-linejoin="round"/>
<path d="M12.2075 4.84167C10.6736 4.18976 0.207535 -3.87925 0.207535 2.34167C0.207535 4.13862 -0.383745 7.21466 0.429757 8.84167C1.63106 11.2443 4.64157 12.6917 5.98531 14.8417C7.25255 16.8692 16.9111 18.0543 16.152 15.3972C15.1568 11.914 12.5169 9.46033 11.2075 6.84167" transform="translate(142.664 694.585) rotate(84.0191)" stroke="#FFCFD0" stroke-width="5" stroke-linecap="round" stroke-linejoin="round"/>
<path d="M0 1.83183C2.30431 4.20815 6.24787 11.597 9 13.0541C10.9594 14.0914 11.6476 14.9702 14 14.8318C16.6785 14.6743 13.1188 10.8416 13 9.83183C12.7841 7.99634 8.25849 4.53477 6.77778 3.05405C4.10683 0.383104 3.72266 -1.61348 2 1.83183" transform="translate(119.109 719.382) rotate(84.0191)" stroke="#FFCFD0" stroke-width="5" stroke-linecap="round" stroke-linejoin="round"/>
<path d="M0.115272 2C2.78721 5.42008 6.03967 8.0518 8.89305 11.2222C9.96175 12.4097 11.0361 13.7656 12.3375 14.7778C13.5703 15.7366 12.6211 10.5356 12.3375 10C10.7748 7.04831 8.66471 4.26617 6.11527 2C4.3328 0.415577 2.41352 0 0.115272 0C-0.426121 0 1.11527 1.69666 1.11527 3" transform="translate(97.582 742.634) rotate(84.0191)" stroke="#FFCFD0" stroke-width="5" stroke-linecap="round" stroke-linejoin="round"/>
</g>
</svg>
