<svg width="658" height="631" viewBox="0 0 658 631" fill="none" xmlns="http://www.w3.org/2000/svg">
<g opacity="0.8">
<path d="M2.11968 6.00172C3.65675 9.61838 7.44748 17.4521 12.1197 18.0017C13.2493 18.1346 17.0033 20.6882 17.1197 17.7795C17.2011 15.7428 18.0471 10.9133 16.1197 9.7795C13.4337 8.19949 11.9604 5.19988 9.11968 3.7795C6.66738 2.55335 4.58414 1.31926 2.11968 0.223944C-0.7342 -1.04445 0.119675 3.4187 0.119675 5.00172C0.119675 8.35088 1.04369 7.84974 2.11968 10.0017" transform="translate(45.8789 19.9983)" stroke="#FFCFD0" stroke-width="5" stroke-linecap="round" stroke-linejoin="round"/>
<path d="M12.2075 4.84167C10.6736 4.18976 0.207535 -3.87925 0.207535 2.34167C0.207535 4.13862 -0.383745 7.21466 0.429757 8.84167C1.63106 11.2443 4.64157 12.6917 5.98531 14.8417C7.25255 16.8692 16.9111 18.0543 16.152 15.3972C15.1568 11.914 12.5169 9.46033 11.2075 6.84167" transform="translate(70.793 46.1583)" stroke="#FFCFD0" stroke-width="5" stroke-linecap="round" stroke-linejoin="round"/>
<path d="M0 1.83183C2.30431 4.20815 6.24787 11.597 9 13.0541C10.9594 14.0914 11.6476 14.9702 14 14.8318C16.6785 14.6743 13.1188 10.8416 13 9.83183C12.7841 7.99634 8.25849 4.53477 6.77778 3.05405C4.10683 0.383104 3.72266 -1.61348 2 1.83183" transform="translate(93 72.1682)" stroke="#FFCFD0" stroke-width="5" stroke-linecap="round" stroke-linejoin="round"/>
<path d="M0.115272 2C2.78721 5.42008 6.03967 8.0518 8.89305 11.2222C9.96175 12.4097 11.0361 13.7656 12.3375 14.7778C13.5703 15.7366 12.6211 10.5356 12.3375 10C10.7748 7.04831 8.66471 4.26617 6.11527 2C4.3328 0.415577 2.41352 0 0.115272 0C-0.426121 0 1.11527 1.69666 1.11527 3" transform="translate(113.883 96)" stroke="#FFCFD0" stroke-width="5" stroke-linecap="round" stroke-linejoin="round"/>
<path d="M2.11968 6.00172C3.65675 9.61838 7.44748 17.4521 12.1197 18.0017C13.2493 18.1346 17.0033 20.6882 17.1197 17.7795C17.2011 15.7428 18.0471 10.9133 16.1197 9.7795C13.4337 8.19949 11.9604 5.19988 9.11968 3.7795C6.66738 2.55335 4.58414 1.31926 2.11968 0.223944C-0.7342 -1.04445 0.119675 3.4187 0.119675 5.00172C0.119675 8.35088 1.04369 7.84974 2.11968 10.0017" transform="translate(137 121)" stroke="#FFCFD0" stroke-width="5" stroke-linecap="round" stroke-linejoin="round"/>
<path d="M12.2075 4.84167C10.6736 4.18976 0.207535 -3.87925 0.207535 2.34167C0.207535 4.13862 -0.383745 7.21466 0.429757 8.84167C1.63106 11.2443 4.64157 12.6917 5.98531 14.8417C7.25255 16.8692 16.9111 18.0543 16.152 15.3972C15.1568 11.914 12.5169 9.46033 11.2075 6.84167" transform="translate(161.914 147.16)" stroke="#FFCFD0" stroke-width="5" stroke-linecap="round" stroke-linejoin="round"/>
<path d="M0 1.83183C2.30431 4.20815 6.24787 11.597 9 13.0541C10.9594 14.0914 11.6476 14.9702 14 14.8318C16.6785 14.6743 13.1188 10.8416 13 9.83183C12.7841 7.99634 8.25849 4.53477 6.77778 3.05405C4.10683 0.383104 3.72266 -1.61348 2 1.83183" transform="translate(184.121 173.17)" stroke="#FFCFD0" stroke-width="5" stroke-linecap="round" stroke-linejoin="round"/>
<path d="M0.115272 2C2.78721 5.42008 6.03967 8.0518 8.89305 11.2222C9.96175 12.4097 11.0361 13.7656 12.3375 14.7778C13.5703 15.7366 12.6211 10.5356 12.3375 10C10.7748 7.04831 8.66471 4.26617 6.11527 2C4.3328 0.415577 2.41352 0 0.115272 0C-0.426121 0 1.11527 1.69666 1.11527 3" transform="translate(205.004 197.002)" stroke="#FFCFD0" stroke-width="5" stroke-linecap="round" stroke-linejoin="round"/>
<path d="M2.11968 6.00172C3.65675 9.61838 7.44748 17.4521 12.1197 18.0017C13.2493 18.1346 17.0033 20.6882 17.1197 17.7795C17.2011 15.7428 18.0471 10.9133 16.1197 9.7795C13.4337 8.19949 11.9604 5.19988 9.11968 3.7795C6.66738 2.55335 4.58414 1.31926 2.11968 0.223944C-0.7342 -1.04445 0.119675 3.4187 0.119675 5.00172C0.119675 8.35088 1.04369 7.84974 2.11968 10.0017" transform="translate(228.121 222.002)" stroke="#FFCFD0" stroke-width="5" stroke-linecap="round" stroke-linejoin="round"/>
<path d="M12.2075 4.84167C10.6736 4.18976 0.207535 -3.87925 0.207535 2.34167C0.207535 4.13862 -0.383745 7.21466 0.429757 8.84167C1.63106 11.2443 4.64157 12.6917 5.98531 14.8417C7.25255 16.8692 16.9111 18.0543 16.152 15.3972C15.1568 11.914 12.5169 9.46033 11.2075 6.84167" transform="translate(253.035 248.162)" stroke="#FFCFD0" stroke-width="5" stroke-linecap="round" stroke-linejoin="round"/>
<path d="M0 1.83183C2.30431 4.20815 6.24787 11.597 9 13.0541C10.9594 14.0914 11.6476 14.9702 14 14.8318C16.6785 14.6743 13.1188 10.8416 13 9.83183C12.7841 7.99634 8.25849 4.53477 6.77778 3.05405C4.10683 0.383104 3.72266 -1.61348 2 1.83183" transform="translate(275.242 274.172)" stroke="#FFCFD0" stroke-width="5" stroke-linecap="round" stroke-linejoin="round"/>
<path d="M0.115272 2C2.78721 5.42008 6.03967 8.0518 8.89305 11.2222C9.96175 12.4097 11.0361 13.7656 12.3375 14.7778C13.5703 15.7366 12.6211 10.5356 12.3375 10C10.7748 7.04831 8.66471 4.26617 6.11527 2C4.3328 0.415577 2.41352 0 0.115272 0C-0.426121 0 1.11527 1.69666 1.11527 3" transform="translate(296.125 298.003)" stroke="#FFCFD0" stroke-width="5" stroke-linecap="round" stroke-linejoin="round"/>
<path d="M2.11968 6.00172C3.65675 9.61838 7.44748 17.4521 12.1197 18.0017C13.2493 18.1346 17.0033 20.6882 17.1197 17.7795C17.2011 15.7428 18.0471 10.9133 16.1197 9.7795C13.4337 8.19949 11.9604 5.19988 9.11968 3.7795C6.66738 2.55335 4.58414 1.31926 2.11968 0.223944C-0.7342 -1.04445 0.119675 3.4187 0.119675 5.00172C0.119675 8.35088 1.04369 7.84974 2.11968 10.0017" transform="translate(319.242 323.003)" stroke="#FFCFD0" stroke-width="5" stroke-linecap="round" stroke-linejoin="round"/>
<path d="M12.2075 4.84167C10.6736 4.18976 0.207535 -3.87925 0.207535 2.34167C0.207535 4.13862 -0.383745 7.21466 0.429757 8.84167C1.63106 11.2443 4.64157 12.6917 5.98531 14.8417C7.25255 16.8692 16.9111 18.0543 16.152 15.3972C15.1568 11.914 12.5169 9.46033 11.2075 6.84167" transform="translate(344.156 349.163)" stroke="#FFCFD0" stroke-width="5" stroke-linecap="round" stroke-linejoin="round"/>
<path d="M0 1.83183C2.30431 4.20815 6.24787 11.597 9 13.0541C10.9594 14.0914 11.6476 14.9702 14 14.8318C16.6785 14.6743 13.1188 10.8416 13 9.83183C12.7841 7.99634 8.25849 4.53477 6.77778 3.05405C4.10683 0.383104 3.72266 -1.61348 2 1.83183" transform="translate(366.363 375.173)" stroke="#FFCFD0" stroke-width="5" stroke-linecap="round" stroke-linejoin="round"/>
<path d="M0.115272 2C2.78721 5.42008 6.03967 8.0518 8.89305 11.2222C9.96175 12.4097 11.0361 13.7656 12.3375 14.7778C13.5703 15.7366 12.6211 10.5356 12.3375 10C10.7748 7.04831 8.66471 4.26617 6.11527 2C4.3328 0.415577 2.41352 0 0.115272 0C-0.426121 0 1.11527 1.69666 1.11527 3" transform="translate(387.246 399.005)" stroke="#FFCFD0" stroke-width="5" stroke-linecap="round" stroke-linejoin="round"/>
<path d="M2.11968 6.00172C3.65675 9.61838 7.44748 17.4521 12.1197 18.0017C13.2493 18.1346 17.0033 20.6882 17.1197 17.7795C17.2011 15.7428 18.0471 10.9133 16.1197 9.7795C13.4337 8.19949 11.9604 5.19988 9.11968 3.7795C6.66738 2.55335 4.58414 1.31926 2.11968 0.223944C-0.7342 -1.04445 0.119675 3.4187 0.119675 5.00172C0.119675 8.35088 1.04369 7.84974 2.11968 10.0017" transform="translate(410.363 424.005)" stroke="#FFCFD0" stroke-width="5" stroke-linecap="round" stroke-linejoin="round"/>
<path d="M12.2075 4.84167C10.6736 4.18976 0.207535 -3.87925 0.207535 2.34167C0.207535 4.13862 -0.383745 7.21466 0.429757 8.84167C1.63106 11.2443 4.64157 12.6917 5.98531 14.8417C7.25255 16.8692 16.9111 18.0543 16.152 15.3972C15.1568 11.914 12.5169 9.46033 11.2075 6.84167" transform="translate(435.277 450.165)" stroke="#FFCFD0" stroke-width="5" stroke-linecap="round" stroke-linejoin="round"/>
<path d="M0 1.83183C2.30431 4.20815 6.24787 11.597 9 13.0541C10.9594 14.0914 11.6476 14.9702 14 14.8318C16.6785 14.6743 13.1188 10.8416 13 9.83183C12.7841 7.99634 8.25849 4.53477 6.77778 3.05405C4.10683 0.383104 3.72266 -1.61348 2 1.83183" transform="translate(457.484 476.175)" stroke="#FFCFD0" stroke-width="5" stroke-linecap="round" stroke-linejoin="round"/>
<path d="M0.115272 2C2.78721 5.42008 6.03967 8.0518 8.89305 11.2222C9.96175 12.4097 11.0361 13.7656 12.3375 14.7778C13.5703 15.7366 12.6211 10.5356 12.3375 10C10.7748 7.04831 8.66471 4.26617 6.11527 2C4.3328 0.415577 2.41352 0 0.115272 0C-0.426121 0 1.11527 1.69666 1.11527 3" transform="translate(478.367 500.007)" stroke="#FFCFD0" stroke-width="5" stroke-linecap="round" stroke-linejoin="round"/>
<path d="M2.11968 6.00172C3.65675 9.61838 7.44748 17.4521 12.1197 18.0017C13.2493 18.1346 17.0033 20.6882 17.1197 17.7795C17.2011 15.7428 18.0471 10.9133 16.1197 9.7795C13.4337 8.19949 11.9604 5.19988 9.11968 3.7795C6.66738 2.55335 4.58414 1.31926 2.11968 0.223944C-0.7342 -1.04445 0.119675 3.4187 0.119675 5.00172C0.119675 8.35088 1.04369 7.84974 2.11968 10.0017" transform="translate(501.484 525.007)" stroke="#FFCFD0" stroke-width="5" stroke-linecap="round" stroke-linejoin="round"/>
<path d="M12.2075 4.84167C10.6736 4.18976 0.207535 -3.87925 0.207535 2.34167C0.207535 4.13862 -0.383745 7.21466 0.429757 8.84167C1.63106 11.2443 4.64157 12.6917 5.98531 14.8417C7.25255 16.8692 16.9111 18.0543 16.152 15.3972C15.1568 11.914 12.5169 9.46033 11.2075 6.84167" transform="translate(526.398 551.167)" stroke="#FFCFD0" stroke-width="5" stroke-linecap="round" stroke-linejoin="round"/>
<path d="M0 1.83183C2.30431 4.20815 6.24787 11.597 9 13.0541C10.9594 14.0914 11.6476 14.9702 14 14.8318C16.6785 14.6743 13.1188 10.8416 13 9.83183C12.7841 7.99634 8.25849 4.53477 6.77778 3.05405C4.10683 0.383104 3.72266 -1.61348 2 1.83183" transform="translate(548.605 577.177)" stroke="#FFCFD0" stroke-width="5" stroke-linecap="round" stroke-linejoin="round"/>
<path d="M0.115272 2C2.78721 5.42008 6.03967 8.0518 8.89305 11.2222C9.96175 12.4097 11.0361 13.7656 12.3375 14.7778C13.5703 15.7366 12.6211 10.5356 12.3375 10C10.7748 7.04831 8.66471 4.26617 6.11527 2C4.3328 0.415577 2.41352 0 0.115272 0C-0.426121 0 1.11527 1.69666 1.11527 3" transform="translate(569.488 601.009)" stroke="#FFCFD0" stroke-width="5" stroke-linecap="round" stroke-linejoin="round"/>
<path d="M2.11968 6.00172C3.65675 9.61838 7.44748 17.4521 12.1197 18.0017C13.2493 18.1346 17.0033 20.6882 17.1197 17.7795C17.2011 15.7428 18.0471 10.9133 16.1197 9.7795C13.4337 8.19949 11.9604 5.19988 9.11968 3.7795C6.66738 2.55335 4.58414 1.31926 2.11968 0.223944C-0.7342 -1.04445 0.119675 3.4187 0.119675 5.00172C0.119675 8.35088 1.04369 7.84974 2.11968 10.0017" transform="translate(76 15)" stroke="#FFCFD0" stroke-width="5" stroke-linecap="round" stroke-linejoin="round"/>
<path d="M12.2075 4.84167C10.6736 4.18976 0.207535 -3.87925 0.207535 2.34167C0.207535 4.13862 -0.383745 7.21466 0.429757 8.84167C1.63106 11.2443 4.64157 12.6917 5.98531 14.8417C7.25255 16.8692 16.9111 18.0543 16.152 15.3972C15.1568 11.914 12.5169 9.46033 11.2075 6.84167" transform="translate(100.914 41.16)" stroke="#FFCFD0" stroke-width="5" stroke-linecap="round" stroke-linejoin="round"/>
<path d="M0 1.83183C2.30431 4.20815 6.24787 11.597 9 13.0541C10.9594 14.0914 11.6476 14.9702 14 14.8318C16.6785 14.6743 13.1188 10.8416 13 9.83183C12.7841 7.99634 8.25849 4.53477 6.77778 3.05405C4.10683 0.383104 3.72266 -1.61348 2 1.83183" transform="translate(123.121 67.1699)" stroke="#FFCFD0" stroke-width="5" stroke-linecap="round" stroke-linejoin="round"/>
<path d="M0.115272 2C2.78721 5.42008 6.03967 8.0518 8.89305 11.2222C9.96175 12.4097 11.0361 13.7656 12.3375 14.7778C13.5703 15.7366 12.6211 10.5356 12.3375 10C10.7748 7.04831 8.66471 4.26617 6.11527 2C4.3328 0.415577 2.41352 0 0.115272 0C-0.426121 0 1.11527 1.69666 1.11527 3" transform="translate(144.004 91.0017)" stroke="#FFCFD0" stroke-width="5" stroke-linecap="round" stroke-linejoin="round"/>
<path d="M2.11968 6.00172C3.65675 9.61838 7.44748 17.4521 12.1197 18.0017C13.2493 18.1346 17.0033 20.6882 17.1197 17.7795C17.2011 15.7428 18.0471 10.9133 16.1197 9.7795C13.4337 8.19949 11.9604 5.19988 9.11968 3.7795C6.66738 2.55335 4.58414 1.31926 2.11968 0.223944C-0.7342 -1.04445 0.119675 3.4187 0.119675 5.00172C0.119675 8.35088 1.04369 7.84974 2.11968 10.0017" transform="translate(167.121 116.002)" stroke="#FFCFD0" stroke-width="5" stroke-linecap="round" stroke-linejoin="round"/>
<path d="M12.2075 4.84167C10.6736 4.18976 0.207535 -3.87925 0.207535 2.34167C0.207535 4.13862 -0.383745 7.21466 0.429757 8.84167C1.63106 11.2443 4.64157 12.6917 5.98531 14.8417C7.25255 16.8692 16.9111 18.0543 16.152 15.3972C15.1568 11.914 12.5169 9.46033 11.2075 6.84167" transform="translate(192.035 142.162)" stroke="#FFCFD0" stroke-width="5" stroke-linecap="round" stroke-linejoin="round"/>
<path d="M0 1.83183C2.30431 4.20815 6.24787 11.597 9 13.0541C10.9594 14.0914 11.6476 14.9702 14 14.8318C16.6785 14.6743 13.1188 10.8416 13 9.83183C12.7841 7.99634 8.25849 4.53477 6.77778 3.05405C4.10683 0.383104 3.72266 -1.61348 2 1.83183" transform="translate(214.242 168.172)" stroke="#FFCFD0" stroke-width="5" stroke-linecap="round" stroke-linejoin="round"/>
<path d="M0.115272 2C2.78721 5.42008 6.03967 8.0518 8.89305 11.2222C9.96175 12.4097 11.0361 13.7656 12.3375 14.7778C13.5703 15.7366 12.6211 10.5356 12.3375 10C10.7748 7.04831 8.66471 4.26617 6.11527 2C4.3328 0.415577 2.41352 0 0.115272 0C-0.426121 0 1.11527 1.69666 1.11527 3" transform="translate(235.125 192.003)" stroke="#FFCFD0" stroke-width="5" stroke-linecap="round" stroke-linejoin="round"/>
<path d="M2.11968 6.00172C3.65675 9.61838 7.44748 17.4521 12.1197 18.0017C13.2493 18.1346 17.0033 20.6882 17.1197 17.7795C17.2011 15.7428 18.0471 10.9133 16.1197 9.7795C13.4337 8.19949 11.9604 5.19988 9.11968 3.7795C6.66738 2.55335 4.58414 1.31926 2.11968 0.223944C-0.7342 -1.04445 0.119675 3.4187 0.119675 5.00172C0.119675 8.35088 1.04369 7.84974 2.11968 10.0017" transform="translate(258.242 217.003)" stroke="#FFCFD0" stroke-width="5" stroke-linecap="round" stroke-linejoin="round"/>
<path d="M12.2075 4.84167C10.6736 4.18976 0.207535 -3.87925 0.207535 2.34167C0.207535 4.13862 -0.383745 7.21466 0.429757 8.84167C1.63106 11.2443 4.64157 12.6917 5.98531 14.8417C7.25255 16.8692 16.9111 18.0543 16.152 15.3972C15.1568 11.914 12.5169 9.46033 11.2075 6.84167" transform="translate(283.156 243.163)" stroke="#FFCFD0" stroke-width="5" stroke-linecap="round" stroke-linejoin="round"/>
<path d="M0 1.83183C2.30431 4.20815 6.24787 11.597 9 13.0541C10.9594 14.0914 11.6476 14.9702 14 14.8318C16.6785 14.6743 13.1188 10.8416 13 9.83183C12.7841 7.99634 8.25849 4.53477 6.77778 3.05405C4.10683 0.383104 3.72266 -1.61348 2 1.83183" transform="translate(305.363 269.173)" stroke="#FFCFD0" stroke-width="5" stroke-linecap="round" stroke-linejoin="round"/>
<path d="M0.115272 2C2.78721 5.42008 6.03967 8.0518 8.89305 11.2222C9.96175 12.4097 11.0361 13.7656 12.3375 14.7778C13.5703 15.7366 12.6211 10.5356 12.3375 10C10.7748 7.04831 8.66471 4.26617 6.11527 2C4.3328 0.415577 2.41352 0 0.115272 0C-0.426121 0 1.11527 1.69666 1.11527 3" transform="translate(326.246 293.005)" stroke="#FFCFD0" stroke-width="5" stroke-linecap="round" stroke-linejoin="round"/>
<path d="M2.11968 6.00172C3.65675 9.61838 7.44748 17.4521 12.1197 18.0017C13.2493 18.1346 17.0033 20.6882 17.1197 17.7795C17.2011 15.7428 18.0471 10.9133 16.1197 9.7795C13.4337 8.19949 11.9604 5.19988 9.11968 3.7795C6.66738 2.55335 4.58414 1.31926 2.11968 0.223944C-0.7342 -1.04445 0.119675 3.4187 0.119675 5.00172C0.119675 8.35088 1.04369 7.84974 2.11968 10.0017" transform="translate(349.363 318.005)" stroke="#FFCFD0" stroke-width="5" stroke-linecap="round" stroke-linejoin="round"/>
<path d="M12.2075 4.84167C10.6736 4.18976 0.207535 -3.87925 0.207535 2.34167C0.207535 4.13862 -0.383745 7.21466 0.429757 8.84167C1.63106 11.2443 4.64157 12.6917 5.98531 14.8417C7.25255 16.8692 16.9111 18.0543 16.152 15.3972C15.1568 11.914 12.5169 9.46033 11.2075 6.84167" transform="translate(374.277 344.165)" stroke="#FFCFD0" stroke-width="5" stroke-linecap="round" stroke-linejoin="round"/>
<path d="M0 1.83183C2.30431 4.20815 6.24787 11.597 9 13.0541C10.9594 14.0914 11.6476 14.9702 14 14.8318C16.6785 14.6743 13.1188 10.8416 13 9.83183C12.7841 7.99634 8.25849 4.53477 6.77778 3.05405C4.10683 0.383104 3.72266 -1.61348 2 1.83183" transform="translate(396.484 370.175)" stroke="#FFCFD0" stroke-width="5" stroke-linecap="round" stroke-linejoin="round"/>
<path d="M0.115272 2C2.78721 5.42008 6.03967 8.0518 8.89305 11.2222C9.96175 12.4097 11.0361 13.7656 12.3375 14.7778C13.5703 15.7366 12.6211 10.5356 12.3375 10C10.7748 7.04831 8.66471 4.26617 6.11527 2C4.3328 0.415577 2.41352 0 0.115272 0C-0.426121 0 1.11527 1.69666 1.11527 3" transform="translate(417.367 394.007)" stroke="#FFCFD0" stroke-width="5" stroke-linecap="round" stroke-linejoin="round"/>
<path d="M2.11968 6.00172C3.65675 9.61838 7.44748 17.4521 12.1197 18.0017C13.2493 18.1346 17.0033 20.6882 17.1197 17.7795C17.2011 15.7428 18.0471 10.9133 16.1197 9.7795C13.4337 8.19949 11.9604 5.19988 9.11968 3.7795C6.66738 2.55335 4.58414 1.31926 2.11968 0.223944C-0.7342 -1.04445 0.119675 3.4187 0.119675 5.00172C0.119675 8.35088 1.04369 7.84974 2.11968 10.0017" transform="translate(440.484 419.007)" stroke="#FFCFD0" stroke-width="5" stroke-linecap="round" stroke-linejoin="round"/>
<path d="M12.2075 4.84167C10.6736 4.18976 0.207535 -3.87925 0.207535 2.34167C0.207535 4.13862 -0.383745 7.21466 0.429757 8.84167C1.63106 11.2443 4.64157 12.6917 5.98531 14.8417C7.25255 16.8692 16.9111 18.0543 16.152 15.3972C15.1568 11.914 12.5169 9.46033 11.2075 6.84167" transform="translate(465.398 445.167)" stroke="#FFCFD0" stroke-width="5" stroke-linecap="round" stroke-linejoin="round"/>
<path d="M0 1.83183C2.30431 4.20815 6.24787 11.597 9 13.0541C10.9594 14.0914 11.6476 14.9702 14 14.8318C16.6785 14.6743 13.1188 10.8416 13 9.83183C12.7841 7.99634 8.25849 4.53477 6.77778 3.05405C4.10683 0.383104 3.72266 -1.61348 2 1.83183" transform="translate(487.605 471.177)" stroke="#FFCFD0" stroke-width="5" stroke-linecap="round" stroke-linejoin="round"/>
<path d="M0.115272 2C2.78721 5.42008 6.03967 8.0518 8.89305 11.2222C9.96175 12.4097 11.0361 13.7656 12.3375 14.7778C13.5703 15.7366 12.6211 10.5356 12.3375 10C10.7748 7.04831 8.66471 4.26617 6.11527 2C4.3328 0.415577 2.41352 0 0.115272 0C-0.426121 0 1.11527 1.69666 1.11527 3" transform="translate(508.488 495.009)" stroke="#FFCFD0" stroke-width="5" stroke-linecap="round" stroke-linejoin="round"/>
<path d="M2.11968 6.00172C3.65675 9.61838 7.44748 17.4521 12.1197 18.0017C13.2493 18.1346 17.0033 20.6882 17.1197 17.7795C17.2011 15.7428 18.0471 10.9133 16.1197 9.7795C13.4337 8.19949 11.9604 5.19988 9.11968 3.7795C6.66738 2.55335 4.58414 1.31926 2.11968 0.223944C-0.7342 -1.04445 0.119675 3.4187 0.119675 5.00172C0.119675 8.35088 1.04369 7.84974 2.11968 10.0017" transform="translate(531.605 520.009)" stroke="#FFCFD0" stroke-width="5" stroke-linecap="round" stroke-linejoin="round"/>
<path d="M12.2075 4.84167C10.6736 4.18976 0.207535 -3.87925 0.207535 2.34167C0.207535 4.13862 -0.383745 7.21466 0.429757 8.84167C1.63106 11.2443 4.64157 12.6917 5.98531 14.8417C7.25255 16.8692 16.9111 18.0543 16.152 15.3972C15.1568 11.914 12.5169 9.46033 11.2075 6.84167" transform="translate(556.52 546.169)" stroke="#FFCFD0" stroke-width="5" stroke-linecap="round" stroke-linejoin="round"/>
<path d="M0 1.83183C2.30431 4.20815 6.24787 11.597 9 13.0541C10.9594 14.0914 11.6476 14.9702 14 14.8318C16.6785 14.6743 13.1188 10.8416 13 9.83183C12.7841 7.99634 8.25849 4.53477 6.77778 3.05405C4.10683 0.383104 3.72266 -1.61348 2 1.83183" transform="translate(578.727 572.178)" stroke="#FFCFD0" stroke-width="5" stroke-linecap="round" stroke-linejoin="round"/>
<path d="M0.115272 2C2.78721 5.42008 6.03967 8.0518 8.89305 11.2222C9.96175 12.4097 11.0361 13.7656 12.3375 14.7778C13.5703 15.7366 12.6211 10.5356 12.3375 10C10.7748 7.04831 8.66471 4.26617 6.11527 2C4.3328 0.415577 2.41352 0 0.115272 0C-0.426121 0 1.11527 1.69666 1.11527 3" transform="translate(599.609 596.01)" stroke="#FFCFD0" stroke-width="5" stroke-linecap="round" stroke-linejoin="round"/>
<path d="M2.11968 6.00172C3.65675 9.61838 7.44748 17.4521 12.1197 18.0017C13.2493 18.1346 17.0033 20.6882 17.1197 17.7795C17.2011 15.7428 18.0471 10.9133 16.1197 9.7795C13.4337 8.19949 11.9604 5.19988 9.11968 3.7795C6.66738 2.55335 4.58414 1.31926 2.11968 0.223944C-0.7342 -1.04445 0.119675 3.4187 0.119675 5.00172C0.119675 8.35088 1.04369 7.84974 2.11968 10.0017" transform="translate(593.543 2.86694) rotate(84.0191)" stroke="#FFCFD0" stroke-width="5" stroke-linecap="round" stroke-linejoin="round"/>
<path d="M12.2075 4.84167C10.6736 4.18976 0.207535 -3.87925 0.207535 2.34167C0.207535 4.13862 -0.383745 7.21466 0.429757 8.84167C1.63106 11.2443 4.64157 12.6917 5.98531 14.8417C7.25255 16.8692 16.9111 18.0543 16.152 15.3972C15.1568 11.914 12.5169 9.46033 11.2075 6.84167" transform="translate(570.121 30.3712) rotate(84.0191)" stroke="#FFCFD0" stroke-width="5" stroke-linecap="round" stroke-linejoin="round"/>
<path d="M0 1.83183C2.30431 4.20815 6.24787 11.597 9 13.0541C10.9594 14.0914 11.6476 14.9702 14 14.8318C16.6785 14.6743 13.1188 10.8416 13 9.83183C12.7841 7.99634 8.25849 4.53477 6.77778 3.05405C4.10683 0.383104 3.72266 -1.61348 2 1.83183" transform="translate(546.566 55.1674) rotate(84.0191)" stroke="#FFCFD0" stroke-width="5" stroke-linecap="round" stroke-linejoin="round"/>
<path d="M0.115272 2C2.78721 5.42008 6.03967 8.0518 8.89305 11.2222C9.96175 12.4097 11.0361 13.7656 12.3375 14.7778C13.5703 15.7366 12.6211 10.5356 12.3375 10C10.7748 7.04831 8.66471 4.26617 6.11527 2C4.3328 0.415577 2.41352 0 0.115272 0C-0.426121 0 1.11527 1.69666 1.11527 3" transform="translate(525.039 78.4198) rotate(84.0191)" stroke="#FFCFD0" stroke-width="5" stroke-linecap="round" stroke-linejoin="round"/>
<path d="M2.11968 6.00172C3.65675 9.61838 7.44748 17.4521 12.1197 18.0017C13.2493 18.1346 17.0033 20.6882 17.1197 17.7795C17.2011 15.7428 18.0471 10.9133 16.1197 9.7795C13.4337 8.19949 11.9604 5.19988 9.11968 3.7795C6.66738 2.55335 4.58414 1.31926 2.11968 0.223944C-0.7342 -1.04445 0.119675 3.4187 0.119675 5.00172C0.119675 8.35088 1.04369 7.84974 2.11968 10.0017" transform="translate(502.586 104.016) rotate(84.0191)" stroke="#FFCFD0" stroke-width="5" stroke-linecap="round" stroke-linejoin="round"/>
<path d="M12.2075 4.84167C10.6736 4.18976 0.207535 -3.87925 0.207535 2.34167C0.207535 4.13862 -0.383745 7.21466 0.429757 8.84167C1.63106 11.2443 4.64157 12.6917 5.98531 14.8417C7.25255 16.8692 16.9111 18.0543 16.152 15.3972C15.1568 11.914 12.5169 9.46033 11.2075 6.84167" transform="translate(479.164 131.52) rotate(84.0191)" stroke="#FFCFD0" stroke-width="5" stroke-linecap="round" stroke-linejoin="round"/>
<path d="M0 1.83183C2.30431 4.20815 6.24787 11.597 9 13.0541C10.9594 14.0914 11.6476 14.9702 14 14.8318C16.6785 14.6743 13.1188 10.8416 13 9.83183C12.7841 7.99634 8.25849 4.53477 6.77778 3.05405C4.10683 0.383104 3.72266 -1.61348 2 1.83183" transform="translate(455.609 156.317) rotate(84.0191)" stroke="#FFCFD0" stroke-width="5" stroke-linecap="round" stroke-linejoin="round"/>
<path d="M0.115272 2C2.78721 5.42008 6.03967 8.0518 8.89305 11.2222C9.96175 12.4097 11.0361 13.7656 12.3375 14.7778C13.5703 15.7366 12.6211 10.5356 12.3375 10C10.7748 7.04831 8.66471 4.26617 6.11527 2C4.3328 0.415577 2.41352 0 0.115272 0C-0.426121 0 1.11527 1.69666 1.11527 3" transform="translate(434.082 179.569) rotate(84.0191)" stroke="#FFCFD0" stroke-width="5" stroke-linecap="round" stroke-linejoin="round"/>
<path d="M2.11968 6.00172C3.65675 9.61838 7.44748 17.4521 12.1197 18.0017C13.2493 18.1346 17.0033 20.6882 17.1197 17.7795C17.2011 15.7428 18.0471 10.9133 16.1197 9.7795C13.4337 8.19949 11.9604 5.19988 9.11968 3.7795C6.66738 2.55335 4.58414 1.31926 2.11968 0.223944C-0.7342 -1.04445 0.119675 3.4187 0.119675 5.00172C0.119675 8.35088 1.04369 7.84974 2.11968 10.0017" transform="translate(411.629 205.165) rotate(84.0191)" stroke="#FFCFD0" stroke-width="5" stroke-linecap="round" stroke-linejoin="round"/>
<path d="M12.2075 4.84167C10.6736 4.18976 0.207535 -3.87925 0.207535 2.34167C0.207535 4.13862 -0.383745 7.21466 0.429757 8.84167C1.63106 11.2443 4.64157 12.6917 5.98531 14.8417C7.25255 16.8692 16.9111 18.0543 16.152 15.3972C15.1568 11.914 12.5169 9.46033 11.2075 6.84167" transform="translate(388.207 232.669) rotate(84.0191)" stroke="#FFCFD0" stroke-width="5" stroke-linecap="round" stroke-linejoin="round"/>
<path d="M0 1.83183C2.30431 4.20815 6.24787 11.597 9 13.0541C10.9594 14.0914 11.6476 14.9702 14 14.8318C16.6785 14.6743 13.1188 10.8416 13 9.83183C12.7841 7.99634 8.25849 4.53477 6.77778 3.05405C4.10683 0.383104 3.72266 -1.61348 2 1.83183" transform="translate(364.652 257.466) rotate(84.0191)" stroke="#FFCFD0" stroke-width="5" stroke-linecap="round" stroke-linejoin="round"/>
<path d="M12.2075 4.84167C10.6736 4.18976 0.207535 -3.87925 0.207535 2.34167C0.207535 4.13862 -0.383745 7.21466 0.429757 8.84167C1.63106 11.2443 4.64157 12.6917 5.98531 14.8417C7.25255 16.8692 16.9111 18.0543 16.152 15.3972C15.1568 11.914 12.5169 9.46033 11.2075 6.84167" transform="translate(297.25 333.818) rotate(84.0191)" stroke="#FFCFD0" stroke-width="5" stroke-linecap="round" stroke-linejoin="round"/>
<path d="M0 1.83183C2.30431 4.20815 6.24787 11.597 9 13.0541C10.9594 14.0914 11.6476 14.9702 14 14.8318C16.6785 14.6743 13.1188 10.8416 13 9.83183C12.7841 7.99634 8.25849 4.53477 6.77778 3.05405C4.10683 0.383104 3.72266 -1.61348 2 1.83183" transform="translate(273.695 358.615) rotate(84.0191)" stroke="#FFCFD0" stroke-width="5" stroke-linecap="round" stroke-linejoin="round"/>
<path d="M0.115272 2C2.78721 5.42008 6.03967 8.0518 8.89305 11.2222C9.96175 12.4097 11.0361 13.7656 12.3375 14.7778C13.5703 15.7366 12.6211 10.5356 12.3375 10C10.7748 7.04831 8.66471 4.26617 6.11527 2C4.3328 0.415577 2.41352 0 0.115272 0C-0.426121 0 1.11527 1.69666 1.11527 3" transform="translate(252.168 381.867) rotate(84.0191)" stroke="#FFCFD0" stroke-width="5" stroke-linecap="round" stroke-linejoin="round"/>
<path d="M2.11968 6.00172C3.65675 9.61838 7.44748 17.4521 12.1197 18.0017C13.2493 18.1346 17.0033 20.6882 17.1197 17.7795C17.2011 15.7428 18.0471 10.9133 16.1197 9.7795C13.4337 8.19949 11.9604 5.19988 9.11968 3.7795C6.66738 2.55335 4.58414 1.31926 2.11968 0.223944C-0.7342 -1.04445 0.119675 3.4187 0.119675 5.00172C0.119675 8.35088 1.04369 7.84974 2.11968 10.0017" transform="translate(229.715 407.463) rotate(84.0191)" stroke="#FFCFD0" stroke-width="5" stroke-linecap="round" stroke-linejoin="round"/>
<path d="M12.2075 4.84167C10.6736 4.18976 0.207535 -3.87925 0.207535 2.34167C0.207535 4.13862 -0.383745 7.21466 0.429757 8.84167C1.63106 11.2443 4.64157 12.6917 5.98531 14.8417C7.25255 16.8692 16.9111 18.0543 16.152 15.3972C15.1568 11.914 12.5169 9.46033 11.2075 6.84167" transform="translate(206.293 434.968) rotate(84.0191)" stroke="#FFCFD0" stroke-width="5" stroke-linecap="round" stroke-linejoin="round"/>
<path d="M0 1.83183C2.30431 4.20815 6.24787 11.597 9 13.0541C10.9594 14.0914 11.6476 14.9702 14 14.8318C16.6785 14.6743 13.1188 10.8416 13 9.83183C12.7841 7.99634 8.25849 4.53477 6.77778 3.05405C4.10683 0.383104 3.72266 -1.61348 2 1.83183" transform="translate(182.738 459.764) rotate(84.0191)" stroke="#FFCFD0" stroke-width="5" stroke-linecap="round" stroke-linejoin="round"/>
<path d="M0.115272 2C2.78721 5.42008 6.03967 8.0518 8.89305 11.2222C9.96175 12.4097 11.0361 13.7656 12.3375 14.7778C13.5703 15.7366 12.6211 10.5356 12.3375 10C10.7748 7.04831 8.66471 4.26617 6.11527 2C4.3328 0.415577 2.41352 0 0.115272 0C-0.426121 0 1.11527 1.69666 1.11527 3" transform="translate(161.211 483.016) rotate(84.0191)" stroke="#FFCFD0" stroke-width="5" stroke-linecap="round" stroke-linejoin="round"/>
<path d="M2.11968 6.00172C3.65675 9.61838 7.44748 17.4521 12.1197 18.0017C13.2493 18.1346 17.0033 20.6882 17.1197 17.7795C17.2011 15.7428 18.0471 10.9133 16.1197 9.7795C13.4337 8.19949 11.9604 5.19988 9.11968 3.7795C6.66738 2.55335 4.58414 1.31926 2.11968 0.223944C-0.7342 -1.04445 0.119675 3.4187 0.119675 5.00172C0.119675 8.35088 1.04369 7.84974 2.11968 10.0017" transform="translate(138.758 508.612) rotate(84.0191)" stroke="#FFCFD0" stroke-width="5" stroke-linecap="round" stroke-linejoin="round"/>
<path d="M12.2075 4.84167C10.6736 4.18976 0.207535 -3.87925 0.207535 2.34167C0.207535 4.13862 -0.383745 7.21466 0.429757 8.84167C1.63106 11.2443 4.64157 12.6917 5.98531 14.8417C7.25255 16.8692 16.9111 18.0543 16.152 15.3972C15.1568 11.914 12.5169 9.46033 11.2075 6.84167" transform="translate(115.336 536.117) rotate(84.0191)" stroke="#FFCFD0" stroke-width="5" stroke-linecap="round" stroke-linejoin="round"/>
<path d="M0 1.83183C2.30431 4.20815 6.24787 11.597 9 13.0541C10.9594 14.0914 11.6476 14.9702 14 14.8318C16.6785 14.6743 13.1188 10.8416 13 9.83183C12.7841 7.99634 8.25849 4.53477 6.77778 3.05405C4.10683 0.383104 3.72266 -1.61348 2 1.83183" transform="translate(91.7812 560.913) rotate(84.0191)" stroke="#FFCFD0" stroke-width="5" stroke-linecap="round" stroke-linejoin="round"/>
<path d="M0.115272 2C2.78721 5.42008 6.03967 8.0518 8.89305 11.2222C9.96175 12.4097 11.0361 13.7656 12.3375 14.7778C13.5703 15.7366 12.6211 10.5356 12.3375 10C10.7748 7.04831 8.66471 4.26617 6.11527 2C4.3328 0.415577 2.41352 0 0.115272 0C-0.426121 0 1.11527 1.69666 1.11527 3" transform="translate(70.2539 584.165) rotate(84.0191)" stroke="#FFCFD0" stroke-width="5" stroke-linecap="round" stroke-linejoin="round"/>
<path d="M2.11968 6.00172C3.65675 9.61838 7.44748 17.4521 12.1197 18.0017C13.2493 18.1346 17.0033 20.6882 17.1197 17.7795C17.2011 15.7428 18.0471 10.9133 16.1197 9.7795C13.4337 8.19949 11.9604 5.19988 9.11968 3.7795C6.66738 2.55335 4.58414 1.31926 2.11968 0.223944C-0.7342 -1.04445 0.119675 3.4187 0.119675 5.00172C0.119675 8.35088 1.04369 7.84974 2.11968 10.0017" transform="translate(601.652 32.3033) rotate(84.0191)" stroke="#FFCFD0" stroke-width="5" stroke-linecap="round" stroke-linejoin="round"/>
<path d="M12.2075 4.84167C10.6736 4.18976 0.207535 -3.87925 0.207535 2.34167C0.207535 4.13862 -0.383745 7.21466 0.429757 8.84167C1.63106 11.2443 4.64157 12.6917 5.98531 14.8417C7.25255 16.8692 16.9111 18.0543 16.152 15.3972C15.1568 11.914 12.5169 9.46033 11.2075 6.84167" transform="translate(578.23 59.8075) rotate(84.0191)" stroke="#FFCFD0" stroke-width="5" stroke-linecap="round" stroke-linejoin="round"/>
<path d="M0 1.83183C2.30431 4.20815 6.24787 11.597 9 13.0541C10.9594 14.0914 11.6476 14.9702 14 14.8318C16.6785 14.6743 13.1188 10.8416 13 9.83183C12.7841 7.99634 8.25849 4.53477 6.77778 3.05405C4.10683 0.383104 3.72266 -1.61348 2 1.83183" transform="translate(554.676 84.6038) rotate(84.0191)" stroke="#FFCFD0" stroke-width="5" stroke-linecap="round" stroke-linejoin="round"/>
<path d="M0.115272 2C2.78721 5.42008 6.03967 8.0518 8.89305 11.2222C9.96175 12.4097 11.0361 13.7656 12.3375 14.7778C13.5703 15.7366 12.6211 10.5356 12.3375 10C10.7748 7.04831 8.66471 4.26617 6.11527 2C4.3328 0.415577 2.41352 0 0.115272 0C-0.426121 0 1.11527 1.69666 1.11527 3" transform="translate(533.148 107.856) rotate(84.0191)" stroke="#FFCFD0" stroke-width="5" stroke-linecap="round" stroke-linejoin="round"/>
<path d="M2.11968 6.00172C3.65675 9.61838 7.44748 17.4521 12.1197 18.0017C13.2493 18.1346 17.0033 20.6882 17.1197 17.7795C17.2011 15.7428 18.0471 10.9133 16.1197 9.7795C13.4337 8.19949 11.9604 5.19988 9.11968 3.7795C6.66738 2.55335 4.58414 1.31926 2.11968 0.223944C-0.7342 -1.04445 0.119675 3.4187 0.119675 5.00172C0.119675 8.35088 1.04369 7.84974 2.11968 10.0017" transform="translate(510.695 133.452) rotate(84.0191)" stroke="#FFCFD0" stroke-width="5" stroke-linecap="round" stroke-linejoin="round"/>
<path d="M12.2075 4.84167C10.6736 4.18976 0.207535 -3.87925 0.207535 2.34167C0.207535 4.13862 -0.383745 7.21466 0.429757 8.84167C1.63106 11.2443 4.64157 12.6917 5.98531 14.8417C7.25255 16.8692 16.9111 18.0543 16.152 15.3972C15.1568 11.914 12.5169 9.46033 11.2075 6.84167" transform="translate(487.273 160.957) rotate(84.0191)" stroke="#FFCFD0" stroke-width="5" stroke-linecap="round" stroke-linejoin="round"/>
<path d="M0 1.83183C2.30431 4.20815 6.24787 11.597 9 13.0541C10.9594 14.0914 11.6476 14.9702 14 14.8318C16.6785 14.6743 13.1188 10.8416 13 9.83183C12.7841 7.99634 8.25849 4.53477 6.77778 3.05405C4.10683 0.383104 3.72266 -1.61348 2 1.83183" transform="translate(463.719 185.753) rotate(84.0191)" stroke="#FFCFD0" stroke-width="5" stroke-linecap="round" stroke-linejoin="round"/>
<path d="M0.115272 2C2.78721 5.42008 6.03967 8.0518 8.89305 11.2222C9.96175 12.4097 11.0361 13.7656 12.3375 14.7778C13.5703 15.7366 12.6211 10.5356 12.3375 10C10.7748 7.04831 8.66471 4.26617 6.11527 2C4.3328 0.415577 2.41352 0 0.115272 0C-0.426121 0 1.11527 1.69666 1.11527 3" transform="translate(442.191 209.005) rotate(84.0191)" stroke="#FFCFD0" stroke-width="5" stroke-linecap="round" stroke-linejoin="round"/>
<path d="M2.11968 6.00172C3.65675 9.61838 7.44748 17.4521 12.1197 18.0017C13.2493 18.1346 17.0033 20.6882 17.1197 17.7795C17.2011 15.7428 18.0471 10.9133 16.1197 9.7795C13.4337 8.19949 11.9604 5.19988 9.11968 3.7795C6.66738 2.55335 4.58414 1.31926 2.11968 0.223944C-0.7342 -1.04445 0.119675 3.4187 0.119675 5.00172C0.119675 8.35088 1.04369 7.84974 2.11968 10.0017" transform="translate(419.738 234.601) rotate(84.0191)" stroke="#FFCFD0" stroke-width="5" stroke-linecap="round" stroke-linejoin="round"/>
<path d="M12.2075 4.84167C10.6736 4.18976 0.207535 -3.87925 0.207535 2.34167C0.207535 4.13862 -0.383745 7.21466 0.429757 8.84167C1.63106 11.2443 4.64157 12.6917 5.98531 14.8417C7.25255 16.8692 16.9111 18.0543 16.152 15.3972C15.1568 11.914 12.5169 9.46033 11.2075 6.84167" transform="translate(396.316 262.106) rotate(84.0191)" stroke="#FFCFD0" stroke-width="5" stroke-linecap="round" stroke-linejoin="round"/>
<path d="M0 1.83183C2.30431 4.20815 6.24787 11.597 9 13.0541C10.9594 14.0914 11.6476 14.9702 14 14.8318C16.6785 14.6743 13.1188 10.8416 13 9.83183C12.7841 7.99634 8.25849 4.53477 6.77778 3.05405C4.10683 0.383104 3.72266 -1.61348 2 1.83183" transform="translate(372.762 286.902) rotate(84.0191)" stroke="#FFCFD0" stroke-width="5" stroke-linecap="round" stroke-linejoin="round"/>
<path d="M12.2075 4.84167C10.6736 4.18976 0.207535 -3.87925 0.207535 2.34167C0.207535 4.13862 -0.383745 7.21466 0.429757 8.84167C1.63106 11.2443 4.64157 12.6917 5.98531 14.8417C7.25255 16.8692 16.9111 18.0543 16.152 15.3972C15.1568 11.914 12.5169 9.46033 11.2075 6.84167" transform="translate(305.359 363.255) rotate(84.0191)" stroke="#FFCFD0" stroke-width="5" stroke-linecap="round" stroke-linejoin="round"/>
<path d="M0 1.83183C2.30431 4.20815 6.24787 11.597 9 13.0541C10.9594 14.0914 11.6476 14.9702 14 14.8318C16.6785 14.6743 13.1188 10.8416 13 9.83183C12.7841 7.99634 8.25849 4.53477 6.77778 3.05405C4.10683 0.383104 3.72266 -1.61348 2 1.83183" transform="translate(281.805 388.051) rotate(84.0191)" stroke="#FFCFD0" stroke-width="5" stroke-linecap="round" stroke-linejoin="round"/>
<path d="M0.115272 2C2.78721 5.42008 6.03967 8.0518 8.89305 11.2222C9.96175 12.4097 11.0361 13.7656 12.3375 14.7778C13.5703 15.7366 12.6211 10.5356 12.3375 10C10.7748 7.04831 8.66471 4.26617 6.11527 2C4.3328 0.415577 2.41352 0 0.115272 0C-0.426121 0 1.11527 1.69666 1.11527 3" transform="translate(260.277 411.303) rotate(84.0191)" stroke="#FFCFD0" stroke-width="5" stroke-linecap="round" stroke-linejoin="round"/>
<path d="M2.11968 6.00172C3.65675 9.61838 7.44748 17.4521 12.1197 18.0017C13.2493 18.1346 17.0033 20.6882 17.1197 17.7795C17.2011 15.7428 18.0471 10.9133 16.1197 9.7795C13.4337 8.19949 11.9604 5.19988 9.11968 3.7795C6.66738 2.55335 4.58414 1.31926 2.11968 0.223944C-0.7342 -1.04445 0.119675 3.4187 0.119675 5.00172C0.119675 8.35088 1.04369 7.84974 2.11968 10.0017" transform="translate(237.824 436.9) rotate(84.0191)" stroke="#FFCFD0" stroke-width="5" stroke-linecap="round" stroke-linejoin="round"/>
<path d="M12.2075 4.84167C10.6736 4.18976 0.207535 -3.87925 0.207535 2.34167C0.207535 4.13862 -0.383745 7.21466 0.429757 8.84167C1.63106 11.2443 4.64157 12.6917 5.98531 14.8417C7.25255 16.8692 16.9111 18.0543 16.152 15.3972C15.1568 11.914 12.5169 9.46033 11.2075 6.84167" transform="translate(214.402 464.404) rotate(84.0191)" stroke="#FFCFD0" stroke-width="5" stroke-linecap="round" stroke-linejoin="round"/>
<path d="M0 1.83183C2.30431 4.20815 6.24787 11.597 9 13.0541C10.9594 14.0914 11.6476 14.9702 14 14.8318C16.6785 14.6743 13.1188 10.8416 13 9.83183C12.7841 7.99634 8.25849 4.53477 6.77778 3.05405C4.10683 0.383104 3.72266 -1.61348 2 1.83183" transform="translate(190.848 489.2) rotate(84.0191)" stroke="#FFCFD0" stroke-width="5" stroke-linecap="round" stroke-linejoin="round"/>
<path d="M0.115272 2C2.78721 5.42008 6.03967 8.0518 8.89305 11.2222C9.96175 12.4097 11.0361 13.7656 12.3375 14.7778C13.5703 15.7366 12.6211 10.5356 12.3375 10C10.7748 7.04831 8.66471 4.26617 6.11527 2C4.3328 0.415577 2.41352 0 0.115272 0C-0.426121 0 1.11527 1.69666 1.11527 3" transform="translate(169.32 512.452) rotate(84.0191)" stroke="#FFCFD0" stroke-width="5" stroke-linecap="round" stroke-linejoin="round"/>
<path d="M2.11968 6.00172C3.65675 9.61838 7.44748 17.4521 12.1197 18.0017C13.2493 18.1346 17.0033 20.6882 17.1197 17.7795C17.2011 15.7428 18.0471 10.9133 16.1197 9.7795C13.4337 8.19949 11.9604 5.19988 9.11968 3.7795C6.66738 2.55335 4.58414 1.31926 2.11968 0.223944C-0.7342 -1.04445 0.119675 3.4187 0.119675 5.00172C0.119675 8.35088 1.04369 7.84974 2.11968 10.0017" transform="translate(146.867 538.049) rotate(84.0191)" stroke="#FFCFD0" stroke-width="5" stroke-linecap="round" stroke-linejoin="round"/>
<path d="M12.2075 4.84167C10.6736 4.18976 0.207535 -3.87925 0.207535 2.34167C0.207535 4.13862 -0.383745 7.21466 0.429757 8.84167C1.63106 11.2443 4.64157 12.6917 5.98531 14.8417C7.25255 16.8692 16.9111 18.0543 16.152 15.3972C15.1568 11.914 12.5169 9.46033 11.2075 6.84167" transform="translate(123.445 565.553) rotate(84.0191)" stroke="#FFCFD0" stroke-width="5" stroke-linecap="round" stroke-linejoin="round"/>
<path d="M0 1.83183C2.30431 4.20815 6.24787 11.597 9 13.0541C10.9594 14.0914 11.6476 14.9702 14 14.8318C16.6785 14.6743 13.1188 10.8416 13 9.83183C12.7841 7.99634 8.25849 4.53477 6.77778 3.05405C4.10683 0.383104 3.72266 -1.61348 2 1.83183" transform="translate(99.8906 590.349) rotate(84.0191)" stroke="#FFCFD0" stroke-width="5" stroke-linecap="round" stroke-linejoin="round"/>
<path d="M0.115272 2C2.78721 5.42008 6.03967 8.0518 8.89305 11.2222C9.96175 12.4097 11.0361 13.7656 12.3375 14.7778C13.5703 15.7366 12.6211 10.5356 12.3375 10C10.7748 7.04831 8.66471 4.26617 6.11527 2C4.3328 0.415577 2.41352 0 0.115272 0C-0.426121 0 1.11527 1.69666 1.11527 3" transform="translate(78.3633 613.602) rotate(84.0191)" stroke="#FFCFD0" stroke-width="5" stroke-linecap="round" stroke-linejoin="round"/>
</g>
</svg>
