<svg width="42" height="41" viewBox="0 0 42 41" fill="none" xmlns="http://www.w3.org/2000/svg">
<path d="M0 2.91644C0 2.91644 11.0309 12.6288 11.0767 2.91644C11.127 -7.76508 23.5595 15.2635 24.0206 2.91644C24.1722 -1.14503 34.4264 2.91644 34.4264 2.91644" transform="matrix(0.980319 -0.197418 0.196374 0.980529 2.71484 19.7111)" stroke="#0A0E62" stroke-width="1.52418"/>
<path d="M4.24541 0.53888C4.54302 0.241265 4.54302 -0.241265 4.24541 -0.53888L-0.604514 -5.3888C-0.902129 -5.68641 -1.38466 -5.68641 -1.68227 -5.3888C-1.97989 -5.09118 -1.97989 -4.60865 -1.68227 -4.31104L2.62877 0L-1.68227 4.31104C-1.97989 4.60865 -1.97989 5.09118 -1.68227 5.3888C-1.38466 5.68641 -0.902129 5.68641 -0.604514 5.3888L4.24541 0.53888ZM0 0.762091H3.70653V-0.762091H0V0.762091Z" transform="matrix(0.987944 0.154813 -0.155525 0.987832 37.0156 15.7716)" fill="#0A0E62"/>
</svg>
