<svg width="248" height="235" viewBox="0 0 248 235" fill="none" xmlns="http://www.w3.org/2000/svg">
<path d="M45.3215 150.103C37.722 142.503 29.3617 134.329 22.1081 125.5C16.6342 118.837 11.7906 111.802 8.37966 104.36M58.9031 10.3757C43.1045 10.3757 13.8218 18.8316 6.31527 33.8446C1.44564 43.5839 -0.39463 55.7454 0.0693453 68M105.95 26.0217C110.186 30.0351 115.454 32.5682 118.336 37.7561C120.45 41.5606 122.573 47.8879 125.072 51.0117C127.586 54.1541 128.643 57.9195 130.94 60.7905C135.439 66.4148 129.99 66.3054 134.417 58.8347C138.051 52.7024 136.162 44.1138 140.718 38.1908C144.379 33.4319 147.398 27.3783 150.497 22.1102C153.287 17.3669 159.071 12.6092 165.5 8.76379C172.336 4.67516 179.901 1.61785 185.375 0.705631C202.988 -2.22989 215.463 4.25753 230.139 15.2651C238.816 21.7725 240.881 33.522 239.692 46M226.337 87.7363C221.921 95.464 218.142 105.128 215.037 113.596C208.409 131.671 193.781 148.49 183.31 164.445C170.698 183.664 154.256 204.784 138.328 221.596C131.345 228.967 132.379 228.468 125.942 222.031C120.353 216.442 118.44 210.168 111.817 205.298C107.834 202.37 103.94 198.639 100 194.864C92.9745 188.136 85.7996 181.27 77.7 178.57" transform="translate(4 4)" stroke="#FED4D3" stroke-width="8" stroke-linecap="round" stroke-linejoin="round"/>
<path d="M0 12C3.17146 7.63925 6.20703 4.1182 11.2222 1.77778C12.7265 1.0758 14.8609 1.3817 16.5 1C19.1728 0.377576 21.6929 0 24.4444 0C29.5123 0 32.5835 2.02783 37 3.5" transform="translate(56.5078 38.1827) rotate(-30.3885)" stroke="#FED4D3" stroke-width="8" stroke-linecap="round" stroke-linejoin="round"/>
<path d="M0 0.344842C2.57136 -0.144941 4.03676 -0.164357 6.61111 0.622619C10.9127 1.93761 16.5055 3.06715 20.2222 5.78929C22.5934 7.52595 23.5994 9.83463 24.25 12.5671C24.8487 15.0817 26 17.2737 26 19.8448" transform="translate(206 51)" stroke="#FED4D3" stroke-width="8" stroke-linecap="round" stroke-linejoin="round"/>
<circle cx="4.5" cy="4.5" r="4.5" transform="translate(210 66)" fill="#FED4D3"/>
<circle cx="4.5" cy="4.5" r="4.5" transform="translate(78 37)" fill="#FED4D3"/>
<path d="M0 28C3.49053 28 7.00834 28.0998 10.5 28C12.4097 27.9454 14.1313 26.697 15.8889 26.1111C18.281 25.3137 20.8529 24.5249 23.1111 23.2778C32.0502 18.3413 35.5 9.83 35.5 0" transform="translate(64 139)" stroke="#FED4D3" stroke-width="8" stroke-linecap="round" stroke-linejoin="round"/>
</svg>
