<svg width="924" height="520" viewBox="0 0 924 520" fill="none" xmlns="http://www.w3.org/2000/svg">
<path opacity="0.2" d="M110.157 5.73008C96.5895 58.5734 75.4548 108.806 56.1574 159.73C37.7155 208.396 16.1139 258.915 4.15735 309.73C2.0353 318.749 -0.907603 329.988 0.268462 339.397C0.681325 342.7 27.6146 308.891 28.824 307.286C91.0455 224.691 149.817 139.449 221.713 64.619C236.249 49.4892 251.856 34.9065 268.38 21.9523C278.106 14.3265 290.247 2.1575 303.046 0.174523C337.3 -5.13243 282.616 112.278 277.935 122.619C228.063 232.802 172.067 345.865 145.824 464.73C145.52 466.106 141.755 480.94 145.491 481.619C154.904 483.33 165.437 469.905 170.268 463.952C185.65 445 197.687 422.776 211.046 402.397C238.389 360.685 262.666 317.151 289.046 274.841C320.943 223.683 353.922 173.185 392.824 127.063C402.02 116.161 414.68 101.624 407.38 127.175C401.532 147.64 390.538 166.679 380.602 185.286C360.75 222.463 339.815 259.054 320.268 296.397C294.174 346.248 270.415 397.767 249.38 449.952C241.673 469.07 233.44 488.206 226.824 507.73C217.389 535.576 259.438 458.784 274.824 433.73C324.928 352.142 371.415 267.544 424.602 187.952C427.953 182.938 472.387 126.522 474.824 130.952C477.28 135.418 476.398 145.445 476.157 149.952C475.07 170.314 469.509 189.931 463.824 209.397C453.517 244.689 441.8 279.469 432.491 315.063C431.46 319.006 420.13 352.613 424.602 356.397C425.202 356.904 454.741 321.115 456.824 318.619C479.227 291.768 501.923 264.79 527.824 241.175C530.64 238.607 536.395 232.278 540.824 232.619C545.699 232.994 537.826 253.254 537.268 254.619C532.833 265.48 528.174 276.293 523.046 286.841C522.492 287.981 516.449 302.841 516.602 302.841C521.414 302.841 535.963 283.973 538.491 281.508C550.418 269.872 563.081 256.132 578.602 249.175C589.85 244.132 581.777 270.011 580.268 274.286C578.391 279.605 591.607 273.73 595.713 273.73C598.776 273.73 600.051 275.924 602.157 277.73C606.135 281.14 613.128 282.505 618.157 283.286C630.893 285.262 644.922 283.73 657.824 283.73C682.454 283.73 707.083 283.73 731.713 283.73C774.691 283.73 814.979 280.757 853.713 302.175C865.296 308.579 869.019 310.086 868.157 321.286C867.435 330.682 860.614 344.832 873.157 347.619C888.047 350.928 904.498 352.9 918.157 359.73" transform="translate(3 3.2699)" stroke="#F268A2" stroke-width="5" stroke-linecap="round" stroke-linejoin="round"/>
</svg>
